<svg xmlns="http://www.w3.org/2000/svg" viewBox="0 0 135 135"><defs><style>.cls-1{fill:#fff;}</style></defs><title>IR-smiley-white</title><g id="Layer_2" data-name="Layer 2"><g id="Layer_1-2" data-name="Layer 1"><path class="cls-1" d="M67.5,134A66.53,66.53,0,1,1,134,67.5,66.61,66.61,0,0,1,67.5,134ZM67.5,2A65.53,65.53,0,1,0,133,67.5,65.61,65.61,0,0,0,67.5,2Z"/><path class="cls-1" d="M67.5,135A67.5,67.5,0,1,1,135,67.5,67.58,67.58,0,0,1,67.5,135Zm0-134A66.5,66.5,0,1,0,134,67.5,66.57,66.57,0,0,0,67.5,1Zm0,132.06A65.56,65.56,0,1,1,133.06,67.5,65.63,65.63,0,0,1,67.5,133.06Zm0-130.12A64.56,64.56,0,1,0,132.06,67.5,64.63,64.63,0,0,0,67.5,2.94Z"/><path class="cls-1" d="M67.5,118c-17.17,0-33-7.72-40.43-19.68l.86-.53C35.13,109.46,50.67,117,67.5,117s32.37-7.54,39.57-19.21l.86.53C100.54,110.28,84.67,118,67.5,118Z"/><path class="cls-1" d="M67.5,119C50,119,33.79,111.09,26.22,98.84a1.5,1.5,0,0,1,.49-2.06,1.45,1.45,0,0,1,1.13-.18,1.5,1.5,0,0,1,.94.67C35.81,108.65,51,116,67.5,116s31.7-7.35,38.72-18.73a1.5,1.5,0,0,1,2.56,1.57C101.21,111.09,85,119,67.5,119Z"/><circle class="cls-1" cx="28" cy="77" r="2.5"/><circle class="cls-1" cx="108" cy="77" r="2.5"/></g></g></svg>