<svg xmlns="http://www.w3.org/2000/svg" xmlns:xlink="http://www.w3.org/1999/xlink" viewBox="0 0 135 135"><defs><style>.cls-1{fill:url(#linear-gradient);}.cls-2{fill:url(#linear-gradient-2);}.cls-3{fill:url(#linear-gradient-3);}.cls-4{fill:url(#linear-gradient-4);}.cls-5{fill:url(#linear-gradient-5);}.cls-6{fill:url(#linear-gradient-6);}</style><linearGradient id="linear-gradient" x1="0.97" y1="67.5" x2="134.03" y2="67.5" gradientUnits="userSpaceOnUse"><stop offset="0" stop-color="#0e0e0e"/><stop offset="0.5"/><stop offset="0.52" stop-color="#010101"/><stop offset="0.73" stop-color="#0b0b0b"/><stop offset="1" stop-color="#0e0e0e"/></linearGradient><linearGradient id="linear-gradient-2" x1="0" y1="67.5" x2="135" y2="67.5" xlink:href="#linear-gradient"/><linearGradient id="linear-gradient-3" x1="27.07" y1="107.9" x2="107.93" y2="107.9" xlink:href="#linear-gradient"/><linearGradient id="linear-gradient-4" x1="26" y1="107.78" x2="109" y2="107.78" xlink:href="#linear-gradient"/><linearGradient id="linear-gradient-5" x1="25.5" y1="77" x2="30.5" y2="77" xlink:href="#linear-gradient"/><linearGradient id="linear-gradient-6" x1="105.5" y1="77" x2="110.5" y2="77" xlink:href="#linear-gradient"/></defs><title>IR-smiley-black</title><g id="Layer_2" data-name="Layer 2"><g id="Layer_1-2" data-name="Layer 1"><path class="cls-1" d="M67.5,134A66.53,66.53,0,1,1,134,67.5,66.61,66.61,0,0,1,67.5,134ZM67.5,2A65.53,65.53,0,1,0,133,67.5,65.61,65.61,0,0,0,67.5,2Z"/><path class="cls-2" d="M67.5,135A67.5,67.5,0,1,1,135,67.5,67.58,67.58,0,0,1,67.5,135Zm0-134A66.5,66.5,0,1,0,134,67.5,66.57,66.57,0,0,0,67.5,1Zm0,132.06A65.56,65.56,0,1,1,133.06,67.5,65.63,65.63,0,0,1,67.5,133.06Zm0-130.12A64.56,64.56,0,1,0,132.06,67.5,64.63,64.63,0,0,0,67.5,2.94Z"/><path class="cls-3" d="M67.5,118c-17.17,0-33-7.72-40.43-19.68l.86-.53C35.13,109.46,50.67,117,67.5,117s32.37-7.54,39.57-19.21l.86.53C100.54,110.28,84.67,118,67.5,118Z"/><path class="cls-4" d="M67.5,119C50,119,33.79,111.09,26.22,98.84a1.5,1.5,0,0,1,.49-2.06,1.45,1.45,0,0,1,1.13-.18,1.5,1.5,0,0,1,.94.67C35.81,108.65,51,116,67.5,116s31.7-7.35,38.72-18.73a1.5,1.5,0,0,1,2.56,1.57C101.21,111.09,85,119,67.5,119Z"/><circle class="cls-5" cx="28" cy="77" r="2.5"/><circle class="cls-6" cx="108" cy="77" r="2.5"/></g></g></svg>